<svg xmlns="http://www.w3.org/2000/svg" width="160.239" height="23.462" viewBox="0 0 160.239 23.462">
  <path id="logo" d="M104.127,95.542a20.717,20.717,0,0,0-2.523-1.337,19.9,19.9,0,0,1-3.576-2.041,2.078,2.078,0,0,1-.482-2.369,1.48,1.48,0,0,1,1.514-.833s1.6.088,1.6,1.4V92.22h5.734l-.01-2.732s.441-4.474-6.754-4.671c0,0-5.659-.372-7.282,2.676,0,0-.637.68-.637,3.048v1.711a5.664,5.664,0,0,0,.943,3.246,7.454,7.454,0,0,0,1.974,1.754s2.851,1.535,4.562,2.414c0,0,1.727.986,1.5,2.555a1.692,1.692,0,0,1-1.809,1.545,1.593,1.593,0,0,1-1.525-1.648v-1.854h-6.11v2.693s-.171,5.15,7.68,5.15c0,0,7.5.152,7.852-5.285v-2.193a5.729,5.729,0,0,0-2.651-5.087ZM74.771,85.458,72.851,97.49H72.4L70.568,85.566H60.99l-.48,21.789h5.671l.068-16.417h.446L69.7,107.352h5.966l2.969-16.408h.395l.137,16.411h5.7l-.614-21.9H74.771Zm-33.758.091L37.24,107.33h6.1L45.58,90.442h.5l2.234,16.888h6.1L50.648,85.549Zm128.1,9.693v3.213h1.566V101.9a1.568,1.568,0,1,1-3.127.115V90.089c0-1.229,1.555-1.295,1.555-1.295a1.455,1.455,0,0,1,1.5,1.466v1.814h5.748c.188-3.541-.518-4.4-.518-4.4-1.426-3.2-6.82-3.027-6.82-3.027-8.289,0-7.369,6.36-7.369,6.36v11.535c.178,5.965,8.346,5.359,8.484,5.354,3.633-.4,4.73-1.557,4.73-1.557a3.533,3.533,0,0,0,1.27-1.789,10.528,10.528,0,0,0,.361-2.533V95.242h-7.382Zm-19.053,3.545h-.25l-5.833-13.323H137v21.893h5.68l-.34-13.321h.254l6.043,13.321H155.4v-21.9h-5.752l.41,13.325ZM123.135,101.9s.082,1.8-1.584,1.8a1.642,1.642,0,0,1-1.752-1.752l-.018-16.47h-6.23v16.339S112.912,108,121.639,108c0,0,7.584.09,7.584-5.9V85.478h-6.088V101.9Zm-94-6.36a20.493,20.493,0,0,0-2.522-1.336,19.839,19.839,0,0,1-3.574-2.041,2.077,2.077,0,0,1-.481-2.368,1.478,1.478,0,0,1,1.512-.833s1.6.087,1.6,1.4v1.855h5.736L31.4,89.488s.438-4.474-6.754-4.67a12.9,12.9,0,0,0-1.337,0s-4.357.234-5.915,2.624c-.009.018-.022.031-.031.047,0,0-.636.679-.636,3.048v1.711a5.656,5.656,0,0,0,.943,3.246,7.454,7.454,0,0,0,1.974,1.754s2.85,1.535,4.561,2.414c0,0,1.729.984,1.5,2.555a1.692,1.692,0,0,1-1.808,1.545,1.593,1.593,0,0,1-1.525-1.648v-1.855H16.258v2.695s-.171,5.15,7.68,5.15c0,0,7.5.152,7.853-5.285v-2.191a5.736,5.736,0,0,0-2.655-5.091Z" transform="translate(-16.258 -84.647)" fill="#6a6b6d" fill-rule="evenodd"/>
</svg>
