<svg xmlns="http://www.w3.org/2000/svg" width="110" height="22" viewBox="0 0 110 22">
  <g id="search" transform="translate(-1142 -207)">
    <path id="Path_11" data-name="Path 11" d="M-1378.263,640.715v0a.8.8,0,0,0-.13-.172l-3.309-3.309a6.012,6.012,0,0,0,1.267-3.7,6.039,6.039,0,0,0-6.033-6.033,6.039,6.039,0,0,0-6.033,6.033,6.039,6.039,0,0,0,6.033,6.033,6.011,6.011,0,0,0,3.7-1.267l3.309,3.309a.806.806,0,0,0,.172.13h0a.754.754,0,0,0,.359.09.754.754,0,0,0,.754-.754A.754.754,0,0,0-1378.263,640.715Zm-8.2-2.657a4.53,4.53,0,0,1-4.525-4.525,4.53,4.53,0,0,1,4.525-4.525,4.53,4.53,0,0,1,4.525,4.525,4.485,4.485,0,0,1-.839,2.618,4.484,4.484,0,0,1-1.068,1.068A4.486,4.486,0,0,1-1386.467,638.057Z" transform="translate(2622.172 -416.5)" fill="#6a6b6d" stroke="#28292b" stroke-width="0.3"/>
    <g id="Rectangle_2" data-name="Rectangle 2" transform="translate(1142 207)" fill="none" stroke="#707070" stroke-width="1.3">
      <rect width="110" height="22" rx="11" stroke="none"/>
      <rect x="0.65" y="0.65" width="108.7" height="20.7" rx="10.35" fill="none"/>
    </g>
  </g>
</svg>
